#!OML:ASF F:\VICON\USERDATA\INSTALL\rory3\rory3.ASF
:FULLY-SPECIFIED
:DEGREES
3394
root -0.273987 17.7357 -3.04096 -171.221 207.439 -179.552
lowerback 6.41547 5.76411 0.684256
upperback 1.12779 7.72076 0.61309
thorax -2.40188 3.83636 -0.392599
lowerneck -30.3568 -2.41234 -6.57851
upperneck 27.1526 -2.79844 7.19736
head 14.6548 -0.807199 3.50252
rclavicle 7.55382e-014 -1.74931e-014
rhumerus 23.1374 13.9499 -72.4732
rradius 73.6628
rwrist 51.1065
rhand -62.2274 -12.8574
rfingers 7.12502
rthumb -34.2697 -39.5809
lclavicle 7.55382e-014 -1.74931e-014
lhumerus 19.6411 -2.32519 70.9263
lradius 70.1715
lwrist -35.862
lhand -48.7323 56.0066
lfingers 7.12502
lthumb -21.3719 1164.85
rfemur -10.4522 -14.2774 17.2634
rtibia 43.8106
rfoot -18.2012 -7.47154
rtoes -9.28016
lfemur -29.389 -8.92093 -20.721
ltibia 28.0116
lfoot -3.54161 -7.14567
ltoes -8.71295
3395
root -0.266706 17.7346 -3.06478 -171.253 207.745 -179.561
lowerback 6.3944 5.75111 0.721182
upperback 1.12081 7.70547 0.596077
thorax -2.39032 3.82857 -0.426521
lowerneck -30.1652 -2.33536 -6.51842
upperneck 27.1199 -2.75344 7.27034
head 14.5981 -0.773428 3.52923
rclavicle -6.26172e-014 0
rhumerus 22.8144 13.9519 -72.9142
rradius 73.4615
rwrist 51.197
rhand -61.8932 -12.547
rfingers 7.12502
rthumb -33.9523 -39.3413
lclavicle -6.26172e-014 0
lhumerus 19.1786 -2.24742 70.7667
lradius 70.2854
lwrist -35.8309
lhand -48.5955 55.9302
lfingers 7.12502
lthumb -21.2405 1164.79
rfemur -10.2199 -14.0534 17.2289
rtibia 43.3184
rfoot -18.0478 -7.48056
rtoes -12.71
lfemur -29.3619 -8.77029 -20.6407
ltibia 27.9242
lfoot -3.43666 -7.10662
ltoes -8.02647
3396
root -0.260649 17.7329 -3.08782 -171.323 208.055 -179.573
lowerback 6.38433 5.75349 0.745935
upperback 1.16632 7.70951 0.609671
thorax -2.33636 3.83088 -0.422176
lowerneck -30.1615 -2.28061 -6.42884
upperneck 27.2192 -2.70548 7.21711
head 14.6341 -0.75214 3.50531
rclavicle -7.55382e-014 -6.36111e-015
rhumerus 22.6244 14.0992 -73.0401
rradius 73.5107
rwrist 51.1401
rhand -61.6916 -13.0298
rfingers 7.12502
rthumb -33.7607 -39.8664
lclavicle -7.55382e-014 -6.36111e-015
lhumerus 18.8182 -2.12997 70.6975
lradius 70.4371
lwrist -35.7707
lhand -48.4672 56.0048
lfingers 7.12502
lthumb -21.1173 1164.87
rfemur -9.93436 -13.7207 17.2358
rtibia 42.8557
rfoot -18.1836 -7.47063
rtoes -14.9326
lfemur -29.2604 -8.52321 -20.6117
ltibia 27.7957
lfoot -3.35008 -6.99349
ltoes -6.69832
3397
root -0.253161 17.7329 -3.11734 -171.328 208.286 -179.531
lowerback 6.39374 5.75657 0.696198
upperback 1.15181 7.71122 0.631375
thorax -2.36607 3.83184 -0.375705
lowerneck -30.1805 -2.27465 -6.36737
upperneck 27.3633 -2.70204 7.12563
head 14.6985 -0.758541 3.46262
rclavicle 1.68768e-013 -2.38542e-015
rhumerus 22.4269 14.2737 -73.0608
rradius 73.5897
rwrist 50.9415
rhand -61.7538 -13.2014
rfingers 7.12502
rthumb -33.8199 -40.0249
lclavicle 1.68768e-013 -2.38542e-015
lhumerus 18.5075 -2.05329 70.7511
lradius 70.5748
lwrist -35.7928
lhand -48.227 56.0152
lfingers 7.12502
lthumb -20.8865 1164.91
rfemur -9.78336 -13.4016 17.2417
rtibia 42.3955
rfoot -18.5055 -7.28593
rtoes -14.7953
lfemur -29.2956 -8.37225 -20.6039
ltibia 27.6408
lfoot -3.2795 -6.8177
ltoes -5.30525
3398
root -0.244461 17.7367 -3.15121 -171.227 208.478 -179.537
lowerback 6.3747 5.7422 0.688151
upperback 1.04684 7.69447 0.659625
thorax -2.46895 3.82284 -0.346525
lowerneck -30.0195 -2.22148 -6.38385
upperneck 27.475 -2.64308 7.1512
head 14.7106 -0.734928 3.49105
rclavicle 1.40938e-013 -7.15625e-015
rhumerus 21.9784 14.3759 -73.2652
rradius 73.5665
rwrist 50.908
rhand -61.9277 -13.2212
rfingers 7.12502
rthumb -33.985 -40.0083
lclavicle 1.40938e-013 -7.15625e-015
lhumerus 18.0849 -1.9798 70.8344
lradius 70.6937
lwrist -36.0111
lhand -48.0768 55.8502
lfingers 7.12502
lthumb -20.7422 1164.76
rfemur -9.7502 -13.2029 17.3024
rtibia 41.9091
rfoot -18.8193 -7.05408
rtoes -14.2348
lfemur -29.4519 -8.27776 -20.5165
ltibia 27.5029
lfoot -3.18895 -6.71111
ltoes -4.62002
3399
root -0.235834 17.7414 -3.1812 -171.152 208.678 -179.541
lowerback 6.20533 5.73919 0.754906
upperback 1.04648 7.69333 0.652079
thorax -2.3656 3.82305 -0.371177
lowerneck -30.0089 -2.20099 -6.4149
upperneck 27.6088 -2.63851 7.24077
head 14.77 -0.724183 3.54037
rclavicle -7.2954e-014 0
rhumerus 21.5103 14.3668 -73.5413
rradius 73.5603
rwrist 50.9213
rhand -61.9273 -13.3655
rfingers 7.12502
rthumb -33.9847 -40.1527
lclavicle -7.2954e-014 0
lhumerus 17.8081 -1.98202 70.7865
lradius 70.7563
lwrist -36.1885
lhand -48.3278 55.7301
lfingers 7.12502
lthumb -20.9833 1164.61
rfemur -9.66411 -12.9961 17.3553
rtibia 41.3893
rfoot -19.1551 -6.9218
rtoes -14.0199
lfemur -29.572 -8.19199 -20.438
ltibia 27.3887
lfoot -3.04681 -6.66433
ltoes -4.51804
3400
root -0.230308 17.7388 -3.209 -171.163 208.929 -179.555
lowerback 6.13339 5.76562 0.756714
upperback 1.06708 7.72806 0.672603
thorax -2.30679 3.84104 -0.344732
lowerneck -30.0172 -2.20892 -6.35915
upperneck 27.7215 -2.66252 7.1814
head 14.8221 -0.737912 3.50517
rclavicle 3.77691e-014 -3.97569e-015
rhumerus 21.0401 14.3233 -73.8097
rradius 73.6478
rwrist 50.9871
rhand -61.9548 -13.2309
rfingers 7.12502
rthumb -34.0108 -40.0123
lclavicle 3.77691e-014 -3.97569e-015
lhumerus 17.5041 -2.09812 70.6065
lradius 70.9166
lwrist -36.074
lhand -48.7415 55.3941
lfingers 7.12502
lthumb -21.3808 1164.23
rfemur -9.44754 -12.7585 17.402
rtibia 40.8596
rfoot -19.4456 -6.84131
rtoes -14.0151
lfemur -29.6018 -7.98814 -20.3945
ltibia 27.3275
lfoot -3.0003 -6.72968
ltoes -5.2955
3401
root -0.225642 17.7379 -3.23337 -171.156 209.265 -179.683
lowerback 6.11251 5.79938 0.845252
upperback 1.03798 7.7801 0.713888
thorax -2.31888 3.86628 -0.354267
lowerneck -29.7851 -2.20583 -6.36053
upperneck 27.6945 -2.68205 7.21094
head 14.7649 -0.745431 3.51013
rclavicle -2.44505e-014 9.54166e-015
rhumerus 20.5364 14.4097 -74.0521
rradius 73.8393
rwrist 50.9672
rhand -61.8278 -13.2867
rfingers 7.12502
rthumb -33.8901 -40.0948
lclavicle -2.44505e-014 9.54166e-015
lhumerus 17.0287 -2.11424 70.5481
lradius 71.1385
lwrist -36.0969
lhand -48.7127 54.9093
lfingers 7.12502
lthumb -21.3531 1163.75
rfemur -9.21286 -12.541 17.5218
rtibia 40.3487
rfoot -19.6474 -6.74059
rtoes -14.0403
lfemur -29.5925 -7.80222 -20.2392
ltibia 27.34
lfoot -2.97648 -6.63018
ltoes -5.71752
3402
root -0.217456 17.734 -3.26067 -171.198 209.554 -179.712
lowerback 6.05525 5.80486 0.940888
upperback 1.04623 7.79256 0.709978
thorax -2.26528 3.87236 -0.403495
lowerneck -29.5383 -2.18414 -6.40145
upperneck 27.6256 -2.66852 7.28205
head 14.6845 -0.737093 3.54449
rclavicle -4.77083e-015 1.59028e-014
rhumerus 20.1614 14.4878 -74.2801
rradius 73.9382
rwrist 50.8751
rhand -61.6184 -12.9689
rfingers 7.12502
rthumb -33.6911 -39.8207
lclavicle -4.77083e-015 1.59028e-014
lhumerus 16.5716 -1.99529 70.6163
lradius 71.3525
lwrist -36.2195
lhand -48.4308 54.1348
lfingers 7.12502
lthumb -21.0823 1163.01
rfemur -9.00293 -12.4594 17.5593
rtibia 39.8862
rfoot -19.9068 -6.62141
rtoes -14.0851
lfemur -29.6163 -7.7342 -20.148
ltibia 27.399
lfoot -2.94306 -6.43277
ltoes -5.53986
3403
root -0.209018 17.7272 -3.29448 -171.21 209.778 -179.68
lowerback 5.91837 5.82942 0.96075
upperback 1.15733 7.82203 0.698053
thorax -2.07018 3.88903 -0.405269
lowerneck -29.7178 -2.19555 -6.38804
upperneck 27.6899 -2.68601 7.28818
head 14.7515 -0.739816 3.54575
rclavicle -1.98785e-016 3.10104e-014
rhumerus 20.052 14.4287 -74.3254
rradius 74.0526
rwrist 50.7532
rhand -61.5184 -12.689
rfingers 7.12502
rthumb -33.5962 -39.5615
lclavicle -1.98785e-016 3.10104e-014
lhumerus 16.4131 -2.00789 70.5749
lradius 71.4877
lwrist -36.1487
lhand -48.3275 53.4673
lfingers 7.12502
lthumb -20.9831 1162.35
rfemur -8.8978 -12.3488 17.6177
rtibia 39.4592
rfoot -20.3092 -6.6242
rtoes -13.6202
lfemur -29.7399 -7.56428 -20.1326
ltibia 27.443
lfoot -2.89411 -6.39843
ltoes -5.43401
3404
root -0.20311 17.7237 -3.33058 -171.233 210.037 -179.699
lowerback 5.96193 5.87032 0.954377
upperback 1.22389 7.87487 0.700377
thorax -2.02634 3.91564 -0.403636
lowerneck -29.9856 -2.20268 -6.32563
upperneck 27.8137 -2.70665 7.25943
head 14.8622 -0.742667 3.52658
rclavicle -6.75868e-014 -1.90833e-014
rhumerus 19.8518 14.3597 -74.3814
rradius 74.2106
rwrist 50.6828
rhand -61.4181 -12.5273
rfingers 7.12502
rthumb -33.5008 -39.4205
lclavicle -6.75868e-014 -1.90833e-014
lhumerus 16.2437 -2.23689 70.3124
lradius 71.5266
lwrist -35.9854
lhand -48.7334 53.6237
lfingers 7.12502
lthumb -21.3729 1162.46
rfemur -8.79712 -12.2077 17.7399
rtibia 39.053
rfoot -20.8339 -6.64655
rtoes -12.6471
lfemur -29.8017 -7.32524 -20.0788
ltibia 27.4244
lfoot -2.84693 -6.42214
ltoes -5.9332
3405
root -0.195872 17.721 -3.36396 -171.286 210.323 -179.699
lowerback 6.08171 5.8844 0.927169
upperback 1.17885 7.89458 0.717932
thorax -2.14511 3.92423 -0.389563
lowerneck -29.8949 -2.17252 -6.30823
upperneck 27.8738 -2.67234 7.23481
head 14.8664 -0.731953 3.52165
rclavicle -9.34288e-014 8.74653e-015
rhumerus 19.3861 14.4624 -74.5304
rradius 74.3517
rwrist 50.6152
rhand -61.2317 -12.3771
rfingers 7.12502
rthumb -33.3237 -39.3085
lclavicle -9.34288e-014 8.74653e-015
lhumerus 15.7188 -2.37356 70.1559
lradius 71.664
lwrist -35.8869
lhand -48.9886 54.1077
lfingers 7.12502
lthumb -21.6181 1162.92
rfemur -8.68075 -12.1282 17.8101
rtibia 38.6501
rfoot -21.3249 -6.55028
rtoes -11.1298
lfemur -29.7917 -7.22531 -20.0115
ltibia 27.3336
lfoot -2.74871 -6.23228
ltoes -5.89843
3406
root -0.187065 17.7218 -3.39329 -171.366 210.626 -179.608
lowerback 6.09126 5.88881 0.847005
upperback 1.1269 7.89716 0.734077
thorax -2.21703 3.92543 -0.33523
lowerneck -29.7569 -2.13339 -6.30055
upperneck 27.9544 -2.61786 7.19157
head 14.8679 -0.717544 3.51491
rclavicle 1.33186e-014 -1.35174e-014
rhumerus 18.8351 14.6085 -74.7359
rradius 74.427
rwrist 50.5547
rhand -61.2022 -11.8298
rfingers 7.12502
rthumb -33.2955 -38.7671
lclavicle 1.33186e-014 -1.35174e-014
lhumerus 15.0989 -2.45108 70.038
lradius 71.8523
lwrist -35.7119
lhand -48.8205 54.0007
lfingers 7.12502
lthumb -21.4566 1162.83
rfemur -8.55764 -12.0716 17.7863
rtibia 38.2321
rfoot -21.6712 -6.55284
rtoes -10.0996
lfemur -29.7581 -7.19319 -20.0291
ltibia 27.1924
lfoot -2.57751 -5.95456
ltoes -5.69782
3407
root -0.179437 17.7253 -3.42635 -171.369 210.905 -179.546
lowerback 6.00789 5.88568 0.766486
upperback 1.08888 7.88901 0.772013
thorax -2.22627 3.92217 -0.246368
lowerneck -29.638 -2.08182 -6.28562
upperneck 27.9996 -2.5229 7.0855
head 14.8522 -0.694117 3.48743
rclavicle -3.18055e-015 -1.82882e-014
rhumerus 18.3986 14.7646 -74.8835
rradius 74.4881
rwrist 50.5806
rhand -61.0741 -11.9423
rfingers 7.12502
rthumb -33.1737 -38.9057
lclavicle -3.18055e-015 -1.82882e-014
lhumerus 14.4651 -2.57274 69.9082
lradius 72.1092
lwrist -35.5094
lhand -48.393 53.8192
lfingers 7.12502
lthumb -21.046 1162.7
rfemur -8.52772 -12.0566 17.8418
rtibia 37.8072
rfoot -21.9235 -6.79412
rtoes -9.85433
lfemur -29.7878 -6.96245 -20.0475
ltibia 27.0078
lfoot -2.39509 -5.95263
ltoes -5.57575
